<svg height="512" viewBox="0 0 512 512" width="512" xmlns="http://www.w3.org/2000/svg"><g id="flat"><path d="m224 208.274a8 8 0 0 1 -8-8v-64.274a8 8 0 0 1 16 0v64.274a8 8 0 0 1 -8 8z" fill="#eae9e4"/><path d="m232 136v6.82a27.709 27.709 0 0 1 -16 0v-6.82a8 8 0 0 1 16 0z" fill="#cdccc8"/><path d="m240 88a8 8 0 0 1 -8-8v-48a8 8 0 0 1 4.422-7.155l16-8a8 8 0 1 1 7.156 14.31l-11.578 5.789v43.056a8 8 0 0 1 -8 8z" fill="#eae9e4"/><circle cx="200" cy="72" fill="#89b140" r="24"/><circle cx="200" cy="72" fill="#aac16b" r="14.276"/><path d="m40 256h432v232h-432z" fill="#915628"/><path d="m56 192h208a0 0 0 0 1 0 0 32 32 0 0 1 -32 32h-144a32 32 0 0 1 -32-32 0 0 0 0 1 0 0z" fill="#7a4922"/><path d="m168 336-96 .108v-26.944a6 6 0 0 1 6.056-6l84 .781a6 6 0 0 1 5.944 6z" fill="#5b89b9"/><path d="m416 488h-96l24-144h96z" fill="#e8b65b"/><path d="m35 224h442a11 11 0 0 1 11 11v21a0 0 0 0 1 0 0h-464a0 0 0 0 1 0 0v-21a11 11 0 0 1 11-11z" fill="#d6a27f"/><path d="m440 344h8l40 144h-72z" fill="#c59a4d"/><path d="m360 128v-32h-32v32l-3.421 3.421a42.948 42.948 0 0 0 -12.579 30.369v56.21a6 6 0 0 0 6 6h52a6 6 0 0 0 6-6v-56.21a42.948 42.948 0 0 0 -12.579-30.369z" fill="#668d31"/><path d="m328 72h32v24h-32z" fill="#79a73a"/><path d="m344 160h32v32h-32z" fill="#f4a95a"/><path d="m424 128v-32h-32v32l-16 32v58a6 6 0 0 0 6 6h52a6 6 0 0 0 6-6v-58z" fill="#915628"/><path d="m392 72h32v24h-32z" fill="#a3612d"/><path d="m408 160h32v32h-32z" fill="#cdccc8"/><path d="m224 136a27.672 27.672 0 0 1 -27.394-23.759l-4.606-32.241h64l-4.606 32.241a27.672 27.672 0 0 1 -27.394 23.759z" fill="#ee9d0d"/><path d="m80 112h64v80h-64z" fill="#aac16b"/><path d="m80 80h64v32h-64z" fill="#eae9e4"/><path d="m136 336v48h-32v-48h-32v152h32v-72h32v72h32v-152z" fill="#d6a27f"/><path d="m296 336-96 .108v-26.944a6 6 0 0 1 6.056-6l84 .781a6 6 0 0 1 5.944 6z" fill="#5b89b9"/><path d="m264 336v48h-32v-48h-32v152h32v-72h32v72h32v-152z" fill="#d6a27f"/><path d="m400 384h-32a8 8 0 0 1 0-16h32a8 8 0 0 1 0 16z" fill="#dcac56"/><path d="m380 416h-20a8 8 0 0 1 0-16h20a8 8 0 0 1 0 16z" fill="#dcac56"/><path d="m376 448h-24a8 8 0 0 1 0-16h24a8 8 0 0 1 0 16z" fill="#dcac56"/><g fill="#c79777"><path d="m72 336.108h32v16.342h-32z"/><path d="m136 336.108h32v16.342h-32z"/><path d="m200 336.108h32v16.342h-32z"/><path d="m264 336.108h32v16.342h-32z"/></g><path d="m40 256.002h432v19.676h-432z" fill="#7a4922"/><path d="m142.656 35.562a8 8 0 0 0 -11.094-2.218l-24 16a8 8 0 0 0 -3.562 6.656v24h16v-19.719l20.437-13.625a8 8 0 0 0 2.219-11.094z" fill="#eae9e4"/><path d="m104 112h16v64h-16z" fill="#89b140"/><path d="m104 80h16v32h-16z" fill="#dcdbd6"/><path d="m232 72h16v8h-16z" fill="#cdccc8"/></g></svg>