<svg height="512" viewBox="0 0 512 512" width="512" xmlns="http://www.w3.org/2000/svg"><g id="flat"><path d="m424 232v32h24v32h-32v32h46a18 18 0 0 0 18-18v-60a18 18 0 0 0 -18-18z" fill="#dc4d41"/><path d="m416 384h-88l-16-176h120z" fill="#f55648"/><path d="m320 384h136a0 0 0 0 1 0 0 32 32 0 0 1 -32 32h-104a0 0 0 0 1 0 0v-32a0 0 0 0 1 0 0z" fill="#cbcbcb"/><path d="m358 288h-54v24h48v16h-48v24h54a18 18 0 0 0 18-18v-28a18 18 0 0 0 -18-18z" fill="#cbcbcb"/><path d="m144 416h-80l-16-152h112z" fill="#834b10"/><path d="m40 232h128v32h-128z" fill="#8ed2ff"/><path d="m104 168a56 56 0 0 1 56 56v8a0 0 0 0 1 0 0h-112a0 0 0 0 1 0 0v-8a56 56 0 0 1 56-56z" fill="#bce1ff"/><path d="m288 208h32v48h-32z" fill="#834b10"/><path d="m352 208h-16v-12a12 12 0 0 0 -24 0v12h-16v-12a28 28 0 0 1 56 0z" fill="#cbcbcb"/><path d="m112 232h-16v-96a8 8 0 0 1 3-6.247l40-32 10 12.494-37 29.6z" fill="#6e3f0d"/><path d="m104 168a56.435 56.435 0 0 0 -8 .578v63.422h16v-63.422a56.435 56.435 0 0 0 -8-.578z" fill="#4c2b09"/><circle cx="104" cy="320" fill="#683b0d" r="24"/><path d="m252 264a8 8 0 0 1 -8-8c0-8.423 3.089-13.056 5.344-16.438 1.768-2.654 2.656-3.985 2.656-7.562s-.888-4.91-2.656-7.563a36.995 36.995 0 0 1 -2.962-5.05 8 8 0 1 1 14.5-6.772 23.578 23.578 0 0 0 1.778 2.946c2.251 3.381 5.34 8.014 5.34 16.439s-3.088 13.055-5.344 16.438c-1.768 2.652-2.656 3.984-2.656 7.562a8 8 0 0 1 -8 8z" fill="#fbedbf"/><path d="m258.365 200a8 8 0 0 1 -7.243-11.388 10.228 10.228 0 0 0 .878-4.612 8 8 0 0 1 16 0 26.339 26.339 0 0 1 -2.382 11.386 8 8 0 0 1 -7.253 4.614z" fill="#fbedbf"/><path d="m212 264a8 8 0 0 1 -8-8c0-8.423 3.089-13.056 5.344-16.438a8 8 0 1 1 13.312 8.875c-1.768 2.653-2.656 3.984-2.656 7.563a8 8 0 0 1 -8 8z" fill="#fbedbf"/><path d="m218.376 232a8 8 0 0 1 -7.254-4.618 23.59 23.59 0 0 0 -1.778-2.948c-2.256-3.381-5.344-8.014-5.344-16.434s3.089-13.055 5.344-16.436c1.768-2.656 2.656-3.987 2.656-7.564a8 8 0 0 1 16 0c0 8.422-3.089 13.055-5.344 16.437-1.768 2.653-2.656 3.984-2.656 7.563s.888 4.91 2.656 7.564a36.932 36.932 0 0 1 2.964 5.054 8 8 0 0 1 -7.244 11.382z" fill="#fbedbf"/><g fill="#bce1ff"><path d="m412 184a8 8 0 0 1 -8-8c0-8.423 3.089-13.056 5.344-16.438 1.768-2.654 2.656-3.985 2.656-7.562s-.888-4.91-2.656-7.563a36.995 36.995 0 0 1 -2.962-5.05 8 8 0 1 1 14.5-6.772 23.578 23.578 0 0 0 1.778 2.946c2.251 3.381 5.34 8.014 5.34 16.439s-3.088 13.055-5.344 16.438c-1.768 2.652-2.656 3.984-2.656 7.562a8 8 0 0 1 -8 8z"/><path d="m415.992 124a8 8 0 0 1 -6.648-12.438c1.768-2.654 2.656-3.985 2.656-7.562a8 8 0 0 1 16 0c0 8.421-3.089 13.054-5.344 16.437a7.992 7.992 0 0 1 -6.664 3.563z"/><path d="m372 184a8 8 0 0 1 -8-8c0-8.422 3.088-13.055 5.343-16.438a23.578 23.578 0 0 0 1.778-2.946 8 8 0 0 1 14.5 6.768 37.1 37.1 0 0 1 -2.963 5.054c-1.77 2.652-2.658 3.984-2.658 7.562a8 8 0 0 1 -8 8z"/><path d="m376.007 148a8 8 0 0 1 -6.665-3.563c-2.254-3.385-5.342-8.018-5.342-16.437s3.089-13.055 5.344-16.436c1.768-2.656 2.656-3.987 2.656-7.564a8 8 0 0 1 16 0c0 8.422-3.089 13.055-5.344 16.437-1.768 2.653-2.656 3.984-2.656 7.563s.888 4.909 2.656 7.563a8 8 0 0 1 -6.649 12.437z"/></g><path d="m168 288h160a0 0 0 0 1 0 0v16a80 80 0 0 1 -80 80 80 80 0 0 1 -80-80v-16a0 0 0 0 1 0 0z" fill="#e4e4e2"/><path d="m216 328h-16a8 8 0 0 1 0-16h16a8 8 0 0 1 0 16z" fill="#fbfbf9"/><path d="m280 328h-40a8 8 0 0 1 0-16h40a8 8 0 0 1 0 16z" fill="#fbfbf9"/><path d="m312 416h-128a32 32 0 0 1 -32-32v-8h192v8a32 32 0 0 1 -32 32z" fill="#dbdbdb"/><path d="m16 408h480v16h-480z" fill="#c38325"/></g></svg>