<svg id="Capa_1" enable-background="new 0 0 512 512" height="512" viewBox="0 0 512 512" width="512" xmlns="http://www.w3.org/2000/svg"><g><g><path d="m167.657 340.568 29.427 159.862c.434 2.358 2.49 4.071 4.888 4.071h103.755c2.398 0 4.454-1.712 4.888-4.071l29.427-159.862z" fill="#d88a55"/><path d="m238.874 500.43-29.427-159.862h-41.79l29.427 159.862c.434 2.358 2.49 4.071 4.888 4.071h41.79c-2.398-.001-4.454-1.713-4.888-4.071z" fill="#c57a44"/></g><path d="m352.344 303.745h-192.688c-3.116 0-6.141-.404-9.028-1.16v33.012c0 2.745 2.225 4.97 4.97 4.97h200.804c2.745 0 4.97-2.225 4.97-4.97v-33.012c-2.887.755-5.912 1.16-9.028 1.16z" fill="#f6a96c"/><path d="m191.819 303.745h128.363v36.823h-128.363z" fill="#ea9b58"/><path d="m234.926 303.745h42.149v36.823h-42.149z" fill="#f6a96c"/><g><path d="m204.174 104.412h103.653c.434 0 .863.018 1.294.033.011-.454.035-.905.035-1.362 0-15.125-6.328-28.763-16.467-38.443 6.836-29.291-22.179-71.236-25.592-52.461-2.291 12.599-14.457 25.85-24.381 34.835-4.56 4.129-9.584 7.68-14.804 10.936-15.408 9.609-25.534 26.888-25.044 46.495.434-.016.868-.033 1.306-.033z" fill="#ffe5c2"/><path d="m204.174 104.412h30.618c2.637-15.161 11.697-28.118 24.276-35.962 5.22-3.255 10.244-6.807 14.804-10.935 5.832-5.281 12.436-12.035 17.358-19.264-6.147-21.857-21.69-39.504-24.132-26.072-2.291 12.599-14.457 25.85-24.381 34.835-4.56 4.129-9.584 7.68-14.804 10.936-15.408 9.609-25.534 26.888-25.044 46.495.433-.016.867-.033 1.305-.033z" fill="#fed2a4"/><path d="m182.992 169.198h146.015c8.896-6.546 14.699-17.08 14.699-28.906 0-19.734-16.146-35.88-35.88-35.88h-103.652c-19.734 0-35.88 16.146-35.88 35.88 0 11.827 5.803 22.36 14.698 28.906z" fill="#fff3de"/><g><path d="m181.698 168.198h41.706c-8.159-6.591-13.404-16.664-13.404-27.906 0-19.734 16.146-35.88 35.88-35.88h-41.706c-19.734 0-35.88 16.146-35.88 35.88 0 11.242 5.245 21.315 13.404 27.906z" fill="#ffe5c2"/></g><path d="m157.813 233.034c.61-.032 1.225-.049 1.843-.049h192.688c.618 0 1.232.017 1.843.049 8.934-6.542 14.768-17.099 14.768-28.956 0-19.734-16.146-35.88-35.88-35.88h-154.15c-19.734 0-35.88 16.146-35.88 35.88 0 11.858 5.834 22.414 14.768 28.956z" fill="#ffe5c2"/><path d="m156.625 232.123c1-.085 2.01-.138 3.031-.138h48.838c-8.159-6.591-13.404-16.664-13.404-27.906 0-19.734 16.146-35.88 35.88-35.88h-52.045c-19.734 0-35.88 16.146-35.88 35.88 0 11.322 5.321 21.456 13.58 28.044z" fill="#fed2a4"/><g><path d="m352.344 303.745h-192.688c-19.734 0-35.88-16.146-35.88-35.88 0-19.734 16.146-35.88 35.88-35.88h192.688c19.734 0 35.88 16.146 35.88 35.88 0 19.734-16.146 35.88-35.88 35.88z" fill="#fff3de"/></g><g><path d="m176 267.865c0-19.734 16.146-35.88 35.88-35.88h-52.224c-19.734 0-35.88 16.146-35.88 35.88 0 19.734 16.146 35.88 35.88 35.88h52.224c-19.734 0-35.88-16.146-35.88-35.88z" fill="#ffe5c2"/></g></g><path d="m369.277 227.928c4.53-6.847 7.178-15.042 7.178-23.85 0-19.743-13.262-36.435-31.341-41.667 3.863-6.48 6.092-14.041 6.092-22.119 0-20.978-14.969-38.523-34.786-42.522-1.144-13.329-6.577-25.708-15.66-35.605 3.008-21.962-8.912-47.723-19.708-57.51-5.778-5.238-10.58-5.12-13.59-4.097-2.339.794-6.456 3.185-7.746 10.279-1.497 8.233-9.323 19.106-22.036 30.618-3.785 3.427-8.15 6.646-13.738 10.131-16.356 10.2-26.692 27.341-28.352 46.182-19.823 3.994-34.797 21.542-34.797 42.524 0 8.077 2.23 15.638 6.092 22.119-18.079 5.233-31.341 21.925-31.341 41.668 0 8.807 2.647 17.003 7.178 23.849-15.53 6.61-26.447 22.021-26.447 39.937 0 18.069 11.108 33.587 26.852 40.1v27.633c0 6.876 5.594 12.47 12.471 12.47h5.814l28.296 153.719c1.089 5.918 6.247 10.213 12.264 10.213h103.755c6.017 0 11.175-4.295 12.264-10.213l28.296-153.72h10.114c6.876 0 12.471-5.594 12.471-12.47v-27.633c15.743-6.513 26.852-22.031 26.852-40.1 0-17.915-10.917-33.326-26.447-39.936zm-137.397-163.614c6.277-3.914 11.468-7.754 15.87-11.74 13.541-12.261 22.104-23.785 25.526-34.335 6.287 8.022 15.982 28.099 12.109 44.696-.604 2.585.205 5.296 2.125 7.129 7.611 7.266 12.356 16.635 13.724 26.847h-90.413c1.816-13.323 9.381-25.315 21.059-32.597zm-73.752 268.754v-21.862c.508.018 1.016.039 1.528.039h24.663v21.823zm18.536 15h50.043l-42.263 42.263zm22.655-15v-21.823h28.106v21.823zm-6.376 103.437-5.202-28.259 60.178-60.178h33.461zm49.482-103.437v-21.823h27.149v21.823zm61.196 163.932h-40.612l49.774-49.774zm26.283-142.782-52.969 52.969c-2.929 2.929-2.929 7.678 0 10.606 1.464 1.464 3.384 2.197 5.303 2.197s3.839-.732 5.303-2.197l37.576-37.576-7.549 41.011-75.484 75.484c-.093.093-.174.192-.261.289h-33.489l54.458-54.458c2.929-2.929 2.929-7.678 0-10.606-2.929-2.929-7.678-2.929-10.606 0l-50.744 50.744-5.202-28.26 106.353-106.353h28.443zm-45.329-21.15v-21.823h28.106v21.823zm69.298 0h-26.191v-21.823h24.663c.513 0 1.02-.021 1.528-.039zm-1.529-36.824h-192.688c-15.649 0-28.38-12.731-28.38-28.38s12.731-28.38 28.38-28.38h117.344c4.142 0 7.5-3.358 7.5-7.5s-3.358-7.5-7.5-7.5h-117.344c-.137 0-.271.009-.408.01-5.359-5.163-8.703-12.404-8.703-20.417 0-15.649 12.731-28.38 28.38-28.38h48.075c4.142 0 7.5-3.358 7.5-7.5s-3.358-7.5-7.5-7.5h-42.515c-5.353-5.162-8.692-12.399-8.692-20.406 0-15.649 12.731-28.38 28.38-28.38h103.653c15.649 0 28.38 12.731 28.38 28.38 0 8.008-3.339 15.244-8.692 20.406h-65.514c-4.142 0-7.5 3.358-7.5 7.5s3.358 7.5 7.5 7.5h71.075c15.649 0 28.38 12.731 28.38 28.38 0 8.013-3.343 15.254-8.703 20.417-.137-.001-.271-.01-.408-.01h-40.344c-4.142 0-7.5 3.358-7.5 7.5s3.358 7.5 7.5 7.5h40.344c15.649 0 28.38 12.731 28.38 28.38s-12.731 28.38-28.38 28.38z"/></g></svg>