<svg width="438" height="96" viewBox="0 0 438 96" fill="none" xmlns="http://www.w3.org/2000/svg">
<path d="M76.049 90.3209L65.2613 90.3209L65.2231 41.2329L63.6164 41.1821C62.2034 41.1854 60.8033 41.0029 59.4969 40.6451C58.1905 40.2872 57.0035 39.7612 56.0043 39.0972C55.0052 38.4332 54.2136 37.6445 53.6751 36.7763C53.1367 35.9081 52.8621 34.9778 52.867 34.0388L52.7523 11.897L59.8293 11.8716L59.9058 28.3953L67.174 28.3445L67.1358 11.8462L74.1745 11.8462L74.1363 28.3445L81.4045 28.3953L81.4428 11.8462L88.558 11.897L88.4433 34.0388C88.4433 38.0044 83.6233 41.2075 77.6939 41.1821L76.0872 41.2329L76.049 90.3209V90.3209Z" fill="black"/>
<path d="M121.529 58.3642H107.779V89.9999H97.8965V11.7968H119.811C127.473 11.7968 133.274 13.802 137.213 17.8124C141.152 21.787 143.121 27.6236 143.121 35.3222C143.121 40.1562 142.047 44.3814 139.898 47.998C137.786 51.5787 134.778 54.2822 130.875 56.1083L146.021 89.3554V89.9999H135.44L121.529 58.3642ZM107.779 49.9316H119.703C123.821 49.9316 127.097 48.6067 129.532 45.957C132.003 43.3072 133.238 39.7623 133.238 35.3222C133.238 25.2962 128.691 20.2831 119.596 20.2831H107.779V49.9316ZM175.777 91.0742C168.544 91.0742 162.994 88.9257 159.127 84.6288C155.26 80.2962 153.29 73.9583 153.219 65.6152V58.579C153.219 49.9137 155.099 43.1282 158.858 38.2226C162.654 33.2812 167.936 30.8105 174.703 30.8105C181.507 30.8105 186.591 32.9768 189.957 37.3095C193.323 41.6422 195.042 48.3919 195.113 57.5585V63.789H162.672V65.1318C162.672 71.3622 163.836 75.8919 166.163 78.7206C168.526 81.5494 171.91 82.9638 176.314 82.9638C179.107 82.9638 181.56 82.4446 183.673 81.4062C185.821 80.332 187.826 78.649 189.688 76.3574L194.63 82.373C190.512 88.1738 184.228 91.0742 175.777 91.0742ZM174.703 38.9745C170.764 38.9745 167.846 40.3352 165.948 43.0566C164.05 45.7421 162.976 49.9316 162.726 55.6249H185.606V54.3359C185.356 48.8216 184.353 44.8828 182.599 42.5195C180.88 40.1562 178.248 38.9745 174.703 38.9745ZM234.806 75.122C234.806 73.081 234.036 71.3264 232.496 69.8583C230.956 68.3902 227.984 66.6715 223.58 64.7021C218.46 62.5895 214.843 60.7812 212.73 59.2773C210.654 57.7734 209.096 56.0725 208.058 54.1747C207.019 52.2411 206.5 49.9495 206.5 47.2997C206.5 42.5732 208.219 38.6523 211.656 35.537C215.13 32.386 219.552 30.8105 224.923 30.8105C230.58 30.8105 235.128 32.4576 238.565 35.7519C242.003 39.0462 243.722 43.2714 243.722 48.4277H234.269C234.269 45.8137 233.391 43.5937 231.637 41.7675C229.882 39.9055 227.644 38.9745 224.923 38.9745C222.13 38.9745 219.928 39.7086 218.316 41.1767C216.741 42.609 215.953 44.5426 215.953 46.9775C215.953 48.9111 216.526 50.4687 217.672 51.6503C218.854 52.832 221.664 54.3896 226.104 56.3232C233.159 59.0803 237.957 61.7838 240.499 64.4335C243.041 67.0475 244.312 70.3775 244.312 74.4238C244.312 79.4726 242.576 83.5188 239.103 86.5624C235.629 89.5703 230.974 91.0742 225.138 91.0742C219.086 91.0742 214.181 89.3375 210.421 85.8642C206.661 82.3909 204.781 77.9866 204.781 72.6513H214.342C214.449 75.874 215.434 78.3984 217.296 80.2245C219.158 82.0507 221.772 82.9638 225.138 82.9638C228.289 82.9638 230.688 82.2656 232.335 80.8691C233.982 79.4368 234.806 77.5211 234.806 75.122ZM277.506 91.0742C270.273 91.0742 264.723 88.9257 260.855 84.6288C256.988 80.2962 255.019 73.9583 254.947 65.6152V58.579C254.947 49.9137 256.827 43.1282 260.587 38.2226C264.382 33.2812 269.664 30.8105 276.432 30.8105C283.235 30.8105 288.32 32.9768 291.686 37.3095C295.051 41.6422 296.77 48.3919 296.842 57.5585V63.789H264.4V65.1318C264.4 71.3622 265.564 75.8919 267.892 78.7206C270.255 81.5494 273.639 82.9638 278.043 82.9638C280.836 82.9638 283.289 82.4446 285.401 81.4062C287.55 80.332 289.555 78.649 291.417 76.3574L296.358 82.373C292.241 88.1738 285.956 91.0742 277.506 91.0742ZM276.432 38.9745C272.493 38.9745 269.575 40.3352 267.677 43.0566C265.779 45.7421 264.705 49.9316 264.454 55.6249H287.335V54.3359C287.084 48.8216 286.082 44.8828 284.327 42.5195C282.608 40.1562 279.977 38.9745 276.432 38.9745ZM332.291 40.8007C330.966 40.5501 329.534 40.4247 327.994 40.4247C323.124 40.4247 319.723 43.0924 317.789 48.4277V89.9999H308.282V31.8847H317.521L317.682 37.7929C320.224 33.138 323.823 30.8105 328.478 30.8105C329.981 30.8105 331.235 31.0611 332.237 31.5624L332.291 40.8007ZM359.254 75.5517L370.265 31.8847H379.933L362.691 89.9999H355.602L338.146 31.8847H347.813L359.254 75.5517ZM409.85 91.0742C402.617 91.0742 397.066 88.9257 393.199 84.6288C389.332 80.2962 387.363 73.9583 387.291 65.6152V58.579C387.291 49.9137 389.171 43.1282 392.931 38.2226C396.726 33.2812 402.008 30.8105 408.775 30.8105C415.579 30.8105 420.663 32.9768 424.029 37.3095C427.395 41.6422 429.114 48.3919 429.186 57.5585V63.789H396.744V65.1318C396.744 71.3622 397.908 75.8919 400.235 78.7206C402.599 81.5494 405.982 82.9638 410.387 82.9638C413.18 82.9638 415.632 82.4446 417.745 81.4062C419.894 80.332 421.899 78.649 423.761 76.3574L428.702 82.373C424.584 88.1738 418.3 91.0742 409.85 91.0742ZM408.775 38.9745C404.837 38.9745 401.918 40.3352 400.021 43.0566C398.123 45.7421 397.049 49.9316 396.798 55.6249H419.679V54.3359C419.428 48.8216 418.425 44.8828 416.671 42.5195C414.952 40.1562 412.32 38.9745 408.775 38.9745Z" fill="black"/>
</svg>
