<svg width="339" height="74" xmlns="http://www.w3.org/2000/svg" xmlns:xlink="http://www.w3.org/1999/xlink" overflow="hidden"><defs><clipPath id="clip0"><rect x="0" y="0" width="339" height="74"/></clipPath></defs><g clip-path="url(#clip0)"><path d="M58.6211 69.6224 50.3056 69.6224 50.2761 31.7837 49.0376 31.7445C47.9485 31.7471 46.8692 31.6064 45.8622 31.3306 44.8552 31.0547 43.9402 30.6493 43.17 30.1374 42.3998 29.6256 41.7896 29.0176 41.3746 28.3484 40.9595 27.6792 40.7479 26.9621 40.7516 26.2382L40.6632 9.1706 46.1184 9.15102 46.1774 21.888 51.78 21.8489 51.7505 9.13145 57.1762 9.13145 57.1467 21.8489 62.7493 21.888 62.7788 9.13145 68.2635 9.1706 68.175 26.2382C68.175 29.2951 64.4596 31.7641 59.889 31.7445L58.6505 31.7837 58.6211 69.6224 58.6211 69.6224Z" transform="scale(1.00407 1)"/><path d="M93.6786 44.9891 83.0796 44.9891 83.0796 69.3749 75.4619 69.3749 75.4619 9.09337 92.3543 9.09337C98.2604 9.09337 102.732 10.639 105.768 13.7304 108.805 16.7941 110.322 21.2932 110.322 27.2275 110.322 30.9537 109.495 34.2107 107.838 36.9985 106.21 39.7586 103.891 41.8425 100.883 43.2501L112.558 68.8781 112.558 69.3749 104.402 69.3749 93.6786 44.9891ZM83.0796 38.4889 92.2711 38.4889C95.4454 38.4889 97.9706 37.4677 99.8476 35.4252 101.752 33.3826 102.704 30.6501 102.704 27.2275 102.704 19.4992 99.1993 15.6349 92.1886 15.6349L83.0796 15.6349 83.0796 38.4889ZM135.495 70.203C129.919 70.203 125.641 68.5469 122.66 65.2347 119.68 61.895 118.161 57.0095 118.106 50.5784L118.106 45.1546C118.106 38.4751 119.555 33.2447 122.453 29.4633 125.379 25.6543 129.451 23.7498 134.667 23.7498 139.912 23.7498 143.831 25.4196 146.425 28.7594 149.02 32.0992 150.345 37.3021 150.4 44.368L150.4 49.1707 125.393 49.1707 125.393 50.2058C125.393 55.0084 126.29 58.5 128.084 60.6805 129.905 62.861 132.514 63.9513 135.909 63.9513 138.062 63.9513 139.952 63.551 141.581 62.7506 143.237 61.9226 144.783 60.6253 146.218 58.8588L150.027 63.4959C146.853 67.9673 142.009 70.203 135.495 70.203ZM134.667 30.0428C131.631 30.0428 129.381 31.0917 127.918 33.1895 126.455 35.2595 125.627 38.4889 125.435 42.8775L143.071 42.8775 143.071 41.8839C142.879 37.6333 142.105 34.5972 140.753 32.7754 139.428 30.9537 137.399 30.0428 134.667 30.0428ZM180.996 57.9065C180.996 56.3333 180.403 54.9808 179.216 53.8491 178.029 52.7174 175.738 51.3926 172.343 49.8745 168.396 48.2461 165.608 46.8522 163.979 45.6929 162.379 44.5337 161.178 43.2225 160.378 41.7597 159.577 40.2692 159.177 38.5027 159.177 36.4602 159.177 32.8168 160.502 29.7945 163.152 27.3931 165.829 24.9642 169.238 23.7498 173.378 23.7498 177.739 23.7498 181.245 25.0194 183.894 27.5588 186.544 30.0981 187.869 33.355 187.869 37.3297L180.582 37.3297C180.582 35.3147 179.906 33.6035 178.554 32.1958 177.201 30.7605 175.476 30.0428 173.378 30.0428 171.225 30.0428 169.528 30.6087 168.285 31.7404 167.071 32.8444 166.464 34.3349 166.464 36.2118 166.464 37.7023 166.905 38.903 167.789 39.8138 168.7 40.7247 170.866 41.9253 174.288 43.4158 179.727 45.5411 183.425 47.625 185.385 49.6675 187.344 51.6824 188.324 54.2493 188.324 57.3683 188.324 61.2601 186.986 64.3791 184.309 66.7252 181.631 69.0438 178.042 70.203 173.544 70.203 168.879 70.203 165.098 68.8643 162.2 66.187 159.301 63.5097 157.852 60.1147 157.852 56.002L165.222 56.002C165.304 58.4862 166.064 60.4321 167.499 61.8397 168.934 63.2474 170.949 63.9513 173.544 63.9513 175.973 63.9513 177.822 63.4131 179.092 62.3366 180.361 61.2325 180.996 59.7558 180.996 57.9065ZM213.911 70.203C208.335 70.203 204.057 68.5469 201.076 65.2347 198.095 61.895 196.577 57.0095 196.522 50.5784L196.522 45.1546C196.522 38.4751 197.971 33.2447 200.869 29.4633 203.794 25.6543 207.866 23.7498 213.083 23.7498 218.327 23.7498 222.247 25.4196 224.841 28.7594 227.435 32.0992 228.76 37.3021 228.816 44.368L228.816 49.1707 203.808 49.1707 203.808 50.2058C203.808 55.0084 204.706 58.5 206.5 60.6805 208.322 62.861 210.93 63.9513 214.325 63.9513 216.478 63.9513 218.369 63.551 219.997 62.7506 221.653 61.9226 223.199 60.6253 224.634 58.8588L228.443 63.4959C225.269 67.9673 220.424 70.203 213.911 70.203ZM213.083 30.0428C210.047 30.0428 207.797 31.0917 206.334 33.1895 204.871 35.2595 204.043 38.4889 203.85 42.8775L221.487 42.8775 221.487 41.8839C221.294 37.6333 220.522 34.5972 219.169 32.7754 217.844 30.9537 215.816 30.0428 213.083 30.0428ZM256.141 31.4505C255.12 31.2574 254.016 31.1607 252.829 31.1607 249.075 31.1607 246.453 33.2171 244.962 37.3297L244.962 69.3749 237.634 69.3749 237.634 24.5778 244.756 24.5778 244.88 29.132C246.839 25.5439 249.614 23.7498 253.202 23.7498 254.36 23.7498 255.327 23.9429 256.099 24.3293L256.141 31.4505ZM276.925 58.2378 285.413 24.5778 292.865 24.5778 279.574 69.3749 274.11 69.3749 260.654 24.5778 268.106 24.5778 276.925 58.2378ZM315.926 70.203C310.351 70.203 306.072 68.5469 303.091 65.2347 300.11 61.895 298.592 57.0095 298.537 50.5784L298.537 45.1546C298.537 38.4751 299.986 33.2447 302.884 29.4633 305.81 25.6543 309.881 23.7498 315.097 23.7498 320.342 23.7498 324.261 25.4196 326.856 28.7594 329.45 32.0992 330.775 37.3021 330.831 44.368L330.831 49.1707 305.823 49.1707 305.823 50.2058C305.823 55.0084 306.721 58.5 308.514 60.6805 310.337 62.861 312.944 63.9513 316.34 63.9513 318.493 63.9513 320.383 63.551 322.012 62.7506 323.668 61.9226 325.214 60.6253 326.649 58.8588L330.458 63.4959C327.284 67.9673 322.44 70.203 315.926 70.203ZM315.097 30.0428C312.062 30.0428 309.812 31.0917 308.35 33.1895 306.886 35.2595 306.059 38.4889 305.865 42.8775L323.503 42.8775 323.503 41.8839C323.309 37.6333 322.536 34.5972 321.184 32.7754 319.859 30.9537 317.83 30.0428 315.097 30.0428Z" transform="scale(1.00407 1)"/></g></svg>