<svg width="153" height="138" viewBox="0 0 153 138" fill="none" xmlns="http://www.w3.org/2000/svg">
<path d="M78.3567 0.301369L73.3784 1.59157L12.0441 17.4872L7.06573 18.7774C4.6493 19.4066 2.57987 20.9733 1.31146 23.134C0.0430563 25.2946 -0.320746 27.8727 0.299871 30.3025L21.8871 114.43C22.5132 116.858 24.0722 118.938 26.2221 120.212C28.372 121.487 30.9373 121.853 33.3551 121.229L33.368 121.226L104.633 102.756L104.646 102.753C107.063 102.124 109.132 100.557 110.4 98.3965C111.669 96.2359 112.033 93.6578 111.412 91.228L89.8248 7.10094C89.1987 4.67248 87.6397 2.59275 85.4898 1.31802C83.3398 0.0432891 80.7746 -0.322332 78.3567 0.301369Z" fill="#F2F2F2"/>
<path d="M79.0331 2.93847L73.1366 4.46663L13.6385 19.8864L7.74207 21.4145C6.02127 21.8625 4.54757 22.9783 3.64431 24.5169C2.74104 26.0556 2.48196 27.8915 2.92392 29.6218L24.5111 113.749C24.957 115.478 26.0672 116.959 27.5982 117.867C29.1292 118.775 30.956 119.035 32.6778 118.591L32.6907 118.588L103.956 100.118L103.969 100.115C105.69 99.6669 107.163 98.5511 108.067 97.0125C108.97 95.4739 109.229 93.638 108.787 91.9076L87.1997 7.78061C86.7539 6.05126 85.6437 4.57024 84.1127 3.66248C82.5817 2.75471 80.7549 2.49434 79.0331 2.93847Z" fill="white"/>
<path d="M74.5807 30.181L38.5294 39.5242C38.1267 39.6286 37.6993 39.5679 37.3412 39.3556C36.983 39.1432 36.7235 38.7966 36.6197 38.3919C36.5158 37.9873 36.5762 37.5577 36.7875 37.1978C36.9988 36.8379 37.3437 36.577 37.7463 36.4727L73.7977 27.1295C74.2002 27.0255 74.6273 27.0865 74.9852 27.2988C75.343 27.5112 75.6023 27.8577 75.7061 28.2621C75.8099 28.6666 75.7496 29.0958 75.5386 29.4557C75.3276 29.8155 74.9831 30.0764 74.5807 30.181Z" fill="#F2F2F2"/>
<path d="M82.1648 33.7074L39.8508 44.6737C39.4481 44.778 39.0207 44.7174 38.6625 44.505C38.3044 44.2927 38.0449 43.946 37.941 43.5414C37.8372 43.1367 37.8976 42.7072 38.1089 42.3472C38.3202 41.9873 38.6651 41.7265 39.0677 41.6221L81.3817 30.6559C81.7844 30.5515 82.2118 30.6122 82.57 30.8245C82.9281 31.0369 83.1876 31.3835 83.2915 31.7882C83.3953 32.1928 83.3349 32.6224 83.1237 32.9823C82.9124 33.3422 82.5674 33.6031 82.1648 33.7074Z" fill="#F2F2F2"/>
<path d="M80.5025 53.2584L44.4511 62.6016C44.2517 62.6533 44.0442 62.665 43.8403 62.636C43.6364 62.6071 43.4402 62.5381 43.2629 62.4329C43.0856 62.3278 42.9306 62.1886 42.8068 62.0232C42.683 61.8579 42.5928 61.6696 42.5414 61.4693C42.49 61.2689 42.4783 61.0603 42.5071 60.8554C42.5359 60.6506 42.6046 60.4534 42.7092 60.2752C42.8138 60.0969 42.9524 59.9412 43.1169 59.8168C43.2814 59.6923 43.4687 59.6017 43.6681 59.55L79.7194 50.2068C79.9188 50.1552 80.1264 50.1435 80.3303 50.1724C80.5341 50.2013 80.7303 50.2704 80.9077 50.3755C81.085 50.4806 81.24 50.6199 81.3638 50.7852C81.4876 50.9506 81.5778 51.1388 81.6292 51.3391C81.6806 51.5395 81.6922 51.7481 81.6635 51.953C81.6347 52.1579 81.566 52.3551 81.4614 52.5333C81.3567 52.7115 81.2182 52.8673 81.0537 52.9917C80.8892 53.1161 80.7019 53.2067 80.5025 53.2584Z" fill="#F2F2F2"/>
<path d="M88.0865 56.7848L45.7725 67.7511C45.5731 67.8027 45.3656 67.8144 45.1617 67.7855C44.9578 67.7566 44.7616 67.6876 44.5843 67.5824C44.4069 67.4773 44.2519 67.338 44.1281 67.1727C44.0043 67.0074 43.9142 66.8191 43.8627 66.6188C43.8113 66.4184 43.7997 66.2098 43.8285 66.0049C43.8573 65.8 43.926 65.6029 44.0306 65.4246C44.1352 65.2464 44.2737 65.0907 44.4383 64.9662C44.6028 64.8418 44.7901 64.7512 44.9894 64.6995L87.3035 53.7333C87.7061 53.6289 88.1335 53.6896 88.4917 53.9019C88.8498 54.1143 89.1094 54.4609 89.2132 54.8656C89.317 55.2702 89.2567 55.6998 89.0454 56.0597C88.8341 56.4196 88.4892 56.6805 88.0865 56.7848Z" fill="#F2F2F2"/>
<path d="M86.4242 76.3357L50.3728 85.6789C49.9703 85.783 49.5431 85.7221 49.1852 85.5097C48.8273 85.2973 48.5679 84.9508 48.4641 84.5463C48.3603 84.1419 48.4206 83.7125 48.6317 83.3527C48.8428 82.9928 49.1874 82.732 49.5898 82.6274L85.6412 73.2842C86.0438 73.1798 86.4712 73.2405 86.8294 73.4528C87.1875 73.6652 87.4471 74.0118 87.5509 74.4165C87.6547 74.8211 87.5944 75.2507 87.3831 75.6106C87.1718 75.9705 86.8268 76.2314 86.4242 76.3357Z" fill="#F2F2F2"/>
<path d="M94.0082 79.8622L51.6942 90.8284C51.4947 90.8803 51.2871 90.8922 51.0831 90.8633C50.8791 90.8345 50.6827 90.7656 50.5052 90.6604C50.3277 90.5553 50.1726 90.4161 50.0487 90.2507C49.9248 90.0853 49.8345 89.8969 49.7831 89.6964C49.7317 89.496 49.72 89.2873 49.7489 89.0823C49.7777 88.8773 49.8465 88.68 49.9513 88.5017C50.056 88.3234 50.1947 88.1677 50.3594 88.0433C50.5241 87.9189 50.7116 87.8284 50.9111 87.7769L93.2252 76.8106C93.6278 76.7062 94.0553 76.7669 94.4134 76.9793C94.7716 77.1916 95.0311 77.5383 95.1349 77.9429C95.2388 78.3476 95.1784 78.7771 94.9671 79.137C94.7558 79.497 94.4109 79.7578 94.0082 79.8622Z" fill="#F2F2F2"/>
<path d="M32.3749 49.1043L19.6167 52.4108C19.4236 52.4606 19.2188 52.4314 19.0471 52.3296C18.8754 52.2278 18.7509 52.0617 18.7009 51.8678L15.7723 40.4547C15.7227 40.2606 15.7518 40.0548 15.8531 39.8823C15.9543 39.7097 16.1196 39.5846 16.3125 39.5344L29.0708 36.2279C29.2638 36.1781 29.4687 36.2073 29.6403 36.3091C29.812 36.4109 29.9365 36.5769 29.9865 36.7709L32.9151 48.184C32.9647 48.378 32.9357 48.5839 32.8344 48.7564C32.7331 48.9289 32.5678 49.0541 32.3749 49.1043Z" fill="#E6E6E6"/>
<path d="M38.2966 72.1817L25.5384 75.4881C25.3453 75.5379 25.1405 75.5087 24.9688 75.407C24.7971 75.3052 24.6726 75.1391 24.6227 74.9452L21.694 63.5321C21.6445 63.338 21.6735 63.1322 21.7748 62.9596C21.8761 62.7871 22.0413 62.662 22.2343 62.6118L34.9925 59.3053C35.1856 59.2555 35.3904 59.2847 35.5621 59.3865C35.7337 59.4883 35.8582 59.6543 35.9082 59.8483L38.8369 71.2614C38.8864 71.4554 38.8574 71.6613 38.7561 71.8338C38.6548 72.0063 38.4896 72.1314 38.2966 72.1817Z" fill="#E6E6E6"/>
<path d="M44.2183 95.259L31.4601 98.5655C31.267 98.6153 31.0622 98.5861 30.8905 98.4843C30.7188 98.3825 30.5943 98.2165 30.5443 98.0226L27.6157 86.6094C27.5661 86.4154 27.5952 86.2095 27.6965 86.037C27.7978 85.8645 27.963 85.7394 28.156 85.6891L40.9142 82.3826C41.1073 82.3328 41.3121 82.362 41.4838 82.4638C41.6554 82.5656 41.7799 82.7317 41.8299 82.9256L44.7586 94.3387C44.8081 94.5328 44.7791 94.7386 44.6778 94.9112C44.5765 95.0837 44.4113 95.2088 44.2183 95.259Z" fill="#E6E6E6"/>
<path d="M128.078 21.626H54.4548C51.9586 21.6288 49.5654 22.6266 47.8003 24.4005C46.0352 26.1744 45.0424 28.5794 45.0396 31.0881V117.967C45.0424 120.476 46.0352 122.881 47.8003 124.655C49.5654 126.429 51.9586 127.427 54.4548 127.429H128.078C130.574 127.427 132.967 126.429 134.733 124.655C136.498 122.881 137.491 120.476 137.493 117.967V31.0881C137.491 28.5794 136.498 26.1744 134.733 24.4005C132.967 22.6266 130.574 21.6288 128.078 21.626Z" fill="#E6E6E6"/>
<path d="M128.078 24.3499H54.4548C52.6772 24.3519 50.973 25.0625 49.716 26.3257C48.459 27.5889 47.752 29.3016 47.75 31.0881V117.967C47.752 119.754 48.459 121.467 49.716 122.73C50.973 123.993 52.6772 124.704 54.4548 124.706H128.078C129.856 124.704 131.56 123.993 132.817 122.73C134.074 121.467 134.781 119.754 134.783 117.967V31.0881C134.781 29.3016 134.074 27.5889 132.817 26.3257C131.56 25.0625 129.856 24.3519 128.078 24.3499Z" fill="white"/>
<path d="M135.813 138C145.305 138 153 130.267 153 120.727C153 111.188 145.305 103.455 135.813 103.455C126.321 103.455 118.626 111.188 118.626 120.727C118.626 130.267 126.321 138 135.813 138Z" fill="#EF233C"/>
<path d="M144.033 118.474H138.055V112.466C138.055 111.869 137.818 111.296 137.398 110.873C136.978 110.451 136.407 110.214 135.813 110.214C135.218 110.214 134.648 110.451 134.228 110.873C133.807 111.296 133.571 111.869 133.571 112.466V118.474H127.593C126.998 118.474 126.428 118.712 126.008 119.134C125.587 119.557 125.351 120.13 125.351 120.727C125.351 121.325 125.587 121.898 126.008 122.32C126.428 122.743 126.998 122.98 127.593 122.98H133.571V128.988C133.571 129.586 133.807 130.159 134.228 130.581C134.648 131.004 135.218 131.241 135.813 131.241C136.407 131.241 136.978 131.004 137.398 130.581C137.818 130.159 138.055 129.586 138.055 128.988V122.98H144.033C144.627 122.98 145.198 122.743 145.618 122.32C146.038 121.898 146.275 121.325 146.275 120.727C146.275 120.13 146.038 119.557 145.618 119.134C145.198 118.712 144.627 118.474 144.033 118.474Z" fill="white"/>
<path d="M116.998 72.0899H79.767C79.561 72.0902 79.3569 72.0496 79.1665 71.9705C78.976 71.8914 78.803 71.7754 78.6572 71.629C78.5114 71.4827 78.3958 71.3089 78.3169 71.1176C78.238 70.9263 78.1974 70.7213 78.1974 70.5142C78.1974 70.3072 78.238 70.1021 78.3169 69.9108C78.3958 69.7195 78.5114 69.5458 78.6572 69.3994C78.803 69.2531 78.976 69.1371 79.1665 69.058C79.3569 68.9789 79.561 68.9383 79.767 68.9385H116.998C117.413 68.939 117.812 69.1052 118.105 69.4007C118.399 69.6961 118.564 70.0966 118.564 70.5142C118.564 70.9318 118.399 71.3323 118.105 71.6278C117.812 71.9232 117.413 72.0895 116.998 72.0899Z" fill="#E6E6E6"/>
<path d="M123.465 77.4078H79.767C79.561 77.4081 79.3569 77.3675 79.1665 77.2884C78.976 77.2093 78.803 77.0933 78.6572 76.947C78.5114 76.8006 78.3958 76.6268 78.3169 76.4356C78.238 76.2443 78.1974 76.0392 78.1974 75.8322C78.1974 75.6251 78.238 75.42 78.3169 75.2288C78.3958 75.0375 78.5114 74.8637 78.6572 74.7174C78.803 74.571 78.976 74.455 79.1665 74.3759C79.3569 74.2968 79.561 74.2562 79.767 74.2565H123.465C123.881 74.2565 124.28 74.4225 124.574 74.718C124.868 75.0135 125.033 75.4143 125.033 75.8322C125.033 76.2501 124.868 76.6508 124.574 76.9463C124.28 77.2418 123.881 77.4078 123.465 77.4078Z" fill="#E6E6E6"/>
<path d="M116.998 95.9222H79.767C79.561 95.9225 79.3569 95.8819 79.1665 95.8028C78.976 95.7237 78.803 95.6077 78.6572 95.4614C78.5114 95.315 78.3958 95.1412 78.3169 94.95C78.238 94.7587 78.1974 94.5536 78.1974 94.3466C78.1974 94.1395 78.238 93.9345 78.3169 93.7432C78.3958 93.5519 78.5114 93.3781 78.6572 93.2318C78.803 93.0854 78.976 92.9694 79.1665 92.8903C79.3569 92.8112 79.561 92.7706 79.767 92.7709H116.998C117.414 92.7709 117.812 92.9369 118.106 93.2324C118.401 93.5279 118.566 93.9287 118.566 94.3466C118.566 94.7645 118.401 95.1652 118.106 95.4607C117.812 95.7562 117.414 95.9222 116.998 95.9222Z" fill="#E6E6E6"/>
<path d="M123.465 101.24H79.767C79.561 101.241 79.3569 101.2 79.1665 101.121C78.976 101.042 78.803 100.926 78.6572 100.779C78.5114 100.633 78.3958 100.459 78.3169 100.268C78.238 100.077 78.1974 99.8717 78.1974 99.6646C78.1974 99.4575 78.238 99.2525 78.3169 99.0612C78.3958 98.8699 78.5114 98.6961 78.6572 98.5498C78.803 98.4034 78.976 98.2874 79.1665 98.2083C79.3569 98.1292 79.561 98.0886 79.767 98.0889H123.465C123.671 98.0886 123.875 98.1292 124.066 98.2083C124.256 98.2874 124.429 98.4034 124.575 98.5498C124.721 98.6961 124.837 98.8699 124.915 99.0612C124.994 99.2525 125.035 99.4575 125.035 99.6646C125.035 99.8717 124.994 100.077 124.915 100.268C124.837 100.459 124.721 100.633 124.575 100.779C124.429 100.926 124.256 101.042 124.066 101.121C123.875 101.2 123.671 101.241 123.465 101.24Z" fill="#E6E6E6"/>
<path d="M71.4271 79.822H58.2514C58.0521 79.8218 57.861 79.7421 57.7201 79.6005C57.5791 79.4588 57.4999 79.2668 57.4996 79.0665V67.28C57.4999 67.0796 57.5791 66.8876 57.7201 66.7459C57.861 66.6043 58.0521 66.5246 58.2514 66.5244H71.4271C71.6264 66.5246 71.8175 66.6043 71.9584 66.7459C72.0994 66.8876 72.1787 67.0796 72.1789 67.28V79.0665C72.1787 79.2668 72.0994 79.4588 71.9584 79.6005C71.8175 79.7421 71.6264 79.8218 71.4271 79.822Z" fill="#E6E6E6"/>
<path d="M71.4271 103.654H58.2514C58.0521 103.654 57.861 103.574 57.7201 103.433C57.5791 103.291 57.4999 103.099 57.4996 102.899V91.1123C57.4999 90.912 57.5791 90.7199 57.7201 90.5783C57.861 90.4366 58.0521 90.357 58.2514 90.3568H71.4271C71.6264 90.357 71.8175 90.4366 71.9584 90.5783C72.0994 90.7199 72.1787 90.912 72.1789 91.1123V102.899C72.1787 103.099 72.0994 103.291 71.9584 103.433C71.8175 103.574 71.6264 103.654 71.4271 103.654Z" fill="#E6E6E6"/>
<path d="M117.039 45.5598H89.5904C89.1745 45.5598 88.7758 45.3938 88.4817 45.0983C88.1877 44.8028 88.0225 44.402 88.0225 43.9841C88.0225 43.5662 88.1877 43.1654 88.4817 42.8699C88.7758 42.5744 89.1745 42.4084 89.5904 42.4084H117.039C117.455 42.4084 117.854 42.5744 118.148 42.8699C118.442 43.1654 118.607 43.5662 118.607 43.9841C118.607 44.402 118.442 44.8028 118.148 45.0983C117.854 45.3938 117.455 45.5598 117.039 45.5598Z" fill="#CCCCCC"/>
<path d="M123.507 50.8778H89.5904C89.3845 50.8778 89.1806 50.837 88.9904 50.7578C88.8002 50.6786 88.6273 50.5626 88.4817 50.4163C88.3361 50.2699 88.2206 50.0962 88.1418 49.9051C88.063 49.7139 88.0225 49.509 88.0225 49.3021C88.0225 49.0951 88.063 48.8903 88.1418 48.6991C88.2206 48.5079 88.3361 48.3342 88.4817 48.1879C88.6273 48.0416 88.8002 47.9255 88.9904 47.8463C89.1806 47.7671 89.3845 47.7264 89.5904 47.7264H123.507C123.923 47.7264 124.321 47.8924 124.615 48.1879C124.909 48.4834 125.075 48.8842 125.075 49.3021C125.075 49.72 124.909 50.1208 124.615 50.4163C124.321 50.7118 123.923 50.8778 123.507 50.8778Z" fill="#CCCCCC"/>
<path d="M83.5155 57.3225H58.2101C58.0108 57.3223 57.8197 57.2426 57.6788 57.101C57.5378 56.9593 57.4585 56.7673 57.4583 56.567V36.7192C57.4585 36.5189 57.5378 36.3269 57.6788 36.1852C57.8197 36.0436 58.0108 35.9639 58.2101 35.9637H83.5155C83.7148 35.9639 83.9059 36.0436 84.0469 36.1852C84.1878 36.3269 84.2671 36.5189 84.2673 36.7192V56.567C84.2671 56.7673 84.1878 56.9593 84.0469 57.101C83.9059 57.2426 83.7148 57.3223 83.5155 57.3225Z" fill="#EF233C"/>
</svg>
