<svg width="88" height="96" xmlns="http://www.w3.org/2000/svg" xmlns:xlink="http://www.w3.org/1999/xlink" overflow="hidden"><defs><clipPath id="clip0"><rect x="0" y="0" width="88" height="96"/></clipPath></defs><g clip-path="url(#clip0)"><path d="M65.4336 91.8619 56.1518 91.8619 56.1189 41.9365 54.7365 41.8848C53.5207 41.8881 52.316 41.7026 51.192 41.3386 50.0679 40.9747 49.0466 40.4397 48.187 39.7644 47.3272 39.089 46.6462 38.2868 46.1829 37.4038 45.7195 36.5209 45.4832 35.5746 45.4876 34.6196L45.3888 12.1 51.478 12.0742 51.5438 28.8798 57.7975 28.8281 57.7646 12.0483 63.8208 12.0483 63.7879 28.8281 70.0416 28.8798 70.0745 12.0483 76.1966 12.1 76.0979 34.6196C76.0979 38.6529 71.9507 41.9107 66.8489 41.8848L65.4665 41.9365 65.4336 91.8619Z" transform="matrix(1.0059 0 0 1 -41.2749 0)"/><path d="M103.629 59.7996 89.6934 59.7996 89.6934 91.8619 79.6769 91.8619 79.6769 12.604 101.887 12.604C109.653 12.604 115.532 14.6363 119.524 18.7008 123.516 22.729 125.511 28.6444 125.511 36.4468 125.511 41.346 124.423 45.6283 122.246 49.2935 120.105 52.9226 117.057 55.6625 113.1 57.5133L128.451 91.2085 128.451 91.8619 117.728 91.8619 103.629 59.7996ZM89.6934 51.2532 101.778 51.2532C105.951 51.2532 109.272 49.9105 111.739 47.225 114.244 44.5395 115.496 40.9468 115.496 36.4468 115.496 26.2855 110.887 21.2049 101.669 21.2049L89.6934 21.2049 89.6934 51.2532Z" transform="matrix(1.0059 0 0 1 -41.2749 0)"/></g></svg>