<svg height="512" viewBox="0 0 128 128" width="512" xmlns="http://www.w3.org/2000/svg"><g><path d="m6.5 32.5h115v7.875h-115z" fill="#385b60"/><path d="m12.5 41.5h103v77h-103z" fill="#ededf9"/><path d="m18.5 103.75a1.75 1.75 0 0 1 -1.75-1.75v-6a1.75 1.75 0 0 1 3.5 0v6a1.75 1.75 0 0 1 -1.75 1.75z" fill="#dddde3"/><path d="m18.5 61.434h91v23.566h-91z" fill="#537980"/><g><path d="m108.722 38.5h12.778a0 0 0 0 1 0 0v5.611a6.389 6.389 0 0 1 -6.389 6.389 6.389 6.389 0 0 1 -6.389-6.389v-5.611a0 0 0 0 1 0 0z" fill="#f5502f"/><path d="m95.944 38.5h12.778a0 0 0 0 1 0 0v5.611a6.389 6.389 0 0 1 -6.389 6.389 6.389 6.389 0 0 1 -6.389-6.389v-5.611a0 0 0 0 1 0 0z" fill="#d63922"/><path d="m83.167 38.5h12.777a0 0 0 0 1 0 0v5.611a6.389 6.389 0 0 1 -6.388 6.389 6.389 6.389 0 0 1 -6.389-6.389v-5.611a0 0 0 0 1 0 0z" fill="#f5502f"/><path d="m70.389 38.5h12.778a0 0 0 0 1 0 0v5.611a6.389 6.389 0 0 1 -6.389 6.389 6.389 6.389 0 0 1 -6.389-6.389v-5.611a0 0 0 0 1 0 0z" fill="#d63922"/><path d="m57.611 38.5h12.778a0 0 0 0 1 0 0v5.611a6.389 6.389 0 0 1 -6.389 6.389 6.389 6.389 0 0 1 -6.389-6.389v-5.611a0 0 0 0 1 0 0z" fill="#f5502f"/><path d="m44.833 38.5h12.778a0 0 0 0 1 0 0v5.611a6.389 6.389 0 0 1 -6.389 6.389 6.389 6.389 0 0 1 -6.389-6.389v-5.611a0 0 0 0 1 0 0z" fill="#d63922"/><path d="m32.056 38.5h12.777a0 0 0 0 1 0 0v5.611a6.389 6.389 0 0 1 -6.389 6.389 6.389 6.389 0 0 1 -6.389-6.389v-5.611a0 0 0 0 1 0 0z" fill="#f5502f"/><path d="m19.278 38.5h12.778a0 0 0 0 1 0 0v5.611a6.389 6.389 0 0 1 -6.389 6.389 6.389 6.389 0 0 1 -6.389-6.389v-5.611a0 0 0 0 1 0 0z" fill="#d63922"/><path d="m6.5 38.5h12.778a0 0 0 0 1 0 0v5.611a6.389 6.389 0 0 1 -6.389 6.389 6.389 6.389 0 0 1 -6.389-6.389v-5.611a0 0 0 0 1 0 0z" fill="#f5502f"/></g><path d="m6.5 115.5h115v6h-115z" fill="#385b60"/><circle cx="64" cy="24" fill="#ededf9" r="17.5"/><path d="m72.833 29.5h-4.291a1.749 1.749 0 0 1 -1.75-1.75v-7.833a1.749 1.749 0 0 1 1.75-1.75h4.291a4.755 4.755 0 0 1 4.75 4.75v1.833a4.755 4.755 0 0 1 -4.75 4.75zm-4.543-3.5h4.543a1.251 1.251 0 0 0 1.25-1.25v-1.833a1.251 1.251 0 0 0 -1.25-1.25h-4.543z" fill="#4f2217"/><path d="m58 17h12v14h-12z" fill="#663325"/><g fill="#f2a66c"><path d="m88.34 74.5h9a0 0 0 0 1 0 0v7.5a3 3 0 0 1 -3 3h-3a3 3 0 0 1 -3-3v-7.5a0 0 0 0 1 0 0z"/><path d="m55 74.5h9a0 0 0 0 1 0 0v7.5a3 3 0 0 1 -3 3h-3a3 3 0 0 1 -3-3v-7.5a0 0 0 0 1 0 0z"/><path d="m35.833 74.5h9a0 0 0 0 1 0 0v7.5a3 3 0 0 1 -3 3h-3a3 3 0 0 1 -3-3v-7.5a0 0 0 0 1 0 0z"/></g><g fill="#537980"><path d="m27.877 123.25a1.8 1.8 0 0 1 -.271-.021 1.749 1.749 0 0 1 -1.46-2l3.375-21.75a1.75 1.75 0 0 1 3.458.538l-3.379 21.752a1.75 1.75 0 0 1 -1.723 1.481z"/><path d="m43.79 123.25a1.75 1.75 0 0 1 -1.728-1.481l-3.375-21.75a1.75 1.75 0 0 1 3.459-.538l3.375 21.75a1.75 1.75 0 0 1 -1.461 2 1.784 1.784 0 0 1 -.27.019z"/></g><path d="m26.833 96h18a0 0 0 0 1 0 0 6 6 0 0 1 -6 6h-6a6 6 0 0 1 -6-6 0 0 0 0 1 0 0z" fill="#385b60"/><g fill="#537980"><path d="m53.433 123.25a1.787 1.787 0 0 1 -.271-.021 1.75 1.75 0 0 1 -1.461-2l3.375-21.75a1.75 1.75 0 0 1 3.459.538l-3.375 21.75a1.75 1.75 0 0 1 -1.727 1.483z"/><path d="m69.345 123.25a1.75 1.75 0 0 1 -1.727-1.481l-3.375-21.75a1.75 1.75 0 0 1 3.459-.538l3.375 21.75a1.75 1.75 0 0 1 -1.461 2 1.8 1.8 0 0 1 -.271.019z"/></g><path d="m52.389 96h18a0 0 0 0 1 0 0 6 6 0 0 1 -6 6h-6a6 6 0 0 1 -6-6 0 0 0 0 1 0 0z" fill="#385b60"/><g fill="#537980"><path d="m86.655 123.25a1.8 1.8 0 0 1 -.271-.021 1.75 1.75 0 0 1 -1.461-2l3.377-21.748a1.75 1.75 0 0 1 3.459.538l-3.375 21.75a1.75 1.75 0 0 1 -1.729 1.481z"/><path d="m102.567 123.25a1.75 1.75 0 0 1 -1.727-1.481l-3.375-21.75a1.75 1.75 0 0 1 3.459-.538l3.375 21.75a1.75 1.75 0 0 1 -1.461 2 1.787 1.787 0 0 1 -.271.019z"/></g><path d="m85.611 96h18a0 0 0 0 1 0 0 6 6 0 0 1 -6 6h-6a6 6 0 0 1 -6-6 0 0 0 0 1 0 0z" fill="#385b60"/></g></svg>