<svg width="128" height="87" viewBox="0 0 128 87" fill="none" xmlns="http://www.w3.org/2000/svg">
<g clip-path="url(#clip0)">
<path d="M107.591 87C118.863 87 128 86.3085 128 85.4556C128 84.6027 118.863 83.9113 107.591 83.9113C96.3198 83.9113 87.1824 84.6027 87.1824 85.4556C87.1824 86.3085 96.3198 87 107.591 87Z" fill="#E6E6E6"/>
<path d="M20.7876 23.9614C20.7942 22.3895 19.4619 21.1038 17.8982 21.1038H3.38736C1.8483 21.1038 0.518566 22.3683 0.500547 23.9152C0.494963 24.3548 0.591041 24.7898 0.781207 25.1858C0.971373 25.5817 1.25043 25.9279 1.59638 26.197C1.68507 26.2634 1.75485 26.352 1.79877 26.4541C1.84268 26.5561 1.85919 26.6679 1.84665 26.7783C1.82981 26.9037 1.82137 27.03 1.82138 27.1565V37.2455C1.82138 37.6169 1.89415 37.9846 2.03554 38.3277C2.17692 38.6708 2.38415 38.9825 2.64539 39.2451C2.90663 39.5077 3.21677 39.716 3.5581 39.8581C3.89943 40.0003 4.26526 40.0734 4.63472 40.0734H16.559C17.3051 40.0734 18.0207 39.7755 18.5483 39.2451C19.0759 38.7148 19.3723 37.9955 19.3723 37.2455V27.1565C19.3723 27.0459 19.3659 26.9353 19.3531 26.8253C19.3417 26.7165 19.3595 26.6066 19.4047 26.507C19.4498 26.4074 19.5206 26.3218 19.6098 26.259C19.9729 25.9969 20.269 25.652 20.4737 25.2526C20.6785 24.8532 20.7861 24.4107 20.7876 23.9614Z" fill="#3F3D56"/>
<path d="M20.1592 23.6846C20.0869 23.1373 19.8179 22.6356 19.4031 22.2738C18.9882 21.912 18.4561 21.7151 17.9069 21.7203H3.38302C2.86959 21.7157 2.36995 21.8872 1.96661 22.2066C1.56328 22.526 1.28037 22.9741 1.16463 23.4769C1.06552 23.939 1.11491 24.4208 1.30568 24.8529C1.49646 25.285 1.81876 25.6451 2.22617 25.8813C2.34378 25.9489 2.4357 26.0539 2.48746 26.1798C2.53921 26.3056 2.54788 26.4452 2.51209 26.5765C2.46055 26.7657 2.43452 26.9609 2.43471 27.157V37.245C2.43478 37.7606 2.61394 38.2599 2.94128 38.6568C3.26861 39.0537 3.72355 39.3233 4.22754 39.4189C4.36197 39.4441 4.49843 39.4568 4.63517 39.4569H16.5594C16.7607 39.4572 16.9611 39.4294 17.1548 39.3744C17.6164 39.2438 18.0229 38.9652 18.3125 38.581C18.6021 38.1968 18.7588 37.728 18.7589 37.246V27.156C18.759 26.9724 18.7361 26.7895 18.691 26.6116C18.6787 26.5623 18.6723 26.5117 18.6721 26.4608C18.6722 26.3493 18.7025 26.2399 18.7596 26.1443C18.8168 26.0488 18.8988 25.9706 18.9967 25.9183L18.9977 25.9173C19.3928 25.7065 19.7153 25.3804 19.9226 24.9819C20.1299 24.5834 20.2124 24.1311 20.1592 23.6846Z" fill="#EF233C"/>
<path opacity="0.2" d="M18.7589 28.1226V27.1741H17.1548V21.7203H16.2112V27.1741H11.163V21.7203H10.2194V27.1741H5.17116V21.7203H4.22756V27.1741H2.43472V28.1226H4.22756V30.968H2.43472V31.9165H4.22756V34.7619H2.43472V35.7104H4.22756V39.419C4.36199 39.4441 4.49844 39.4569 4.63519 39.4569H5.17115V35.7104H10.2194V39.4569H11.163V35.7104H16.2112V39.4569H16.5594C16.7607 39.4572 16.9611 39.4294 17.1548 39.3744V35.7104H18.7589V34.7619H17.1548V31.9165H18.7589V30.968H17.1548V28.1226H18.7589ZM5.17116 28.1226H10.2194V30.968H5.17116V28.1226ZM5.17116 34.7619V31.9165H10.2194V34.7619H5.17116ZM16.2112 34.7619H11.163V31.9165H16.2112V34.7619ZM16.2112 30.968H11.163V28.1226H16.2112V30.968Z" fill="black"/>
<path d="M20.7216 0C20.7216 1.33025 20.4609 2.64747 19.9545 3.87646C19.448 5.10544 18.7057 6.22213 17.7699 7.16276C16.8341 8.10339 15.7232 8.84953 14.5005 9.3586C13.2779 9.86766 11.9674 10.1297 10.644 10.1297C9.32063 10.1297 8.01019 9.86766 6.78753 9.3586C5.56486 8.84953 4.45393 8.10339 3.51814 7.16276C2.58236 6.22213 1.84005 5.10544 1.33361 3.87646C0.827169 2.64747 0.566505 1.33025 0.566505 0H20.7216Z" fill="#EF233C"/>
<path d="M4.26358 1.79818C4.26358 2.063 4.17014 2.27769 4.05487 2.27769C3.9396 2.27769 3.84616 2.063 3.84616 1.79818C3.85883 1.61898 3.93254 1.44964 4.05487 1.31866C4.1772 1.44964 4.25091 1.61898 4.26358 1.79818Z" fill="#3F3D56"/>
<path d="M14.8181 3.47646C14.8181 3.74129 14.7247 3.95597 14.6094 3.95597C14.4942 3.95597 14.4007 3.74129 14.4007 3.47646C14.4134 3.29726 14.4871 3.12792 14.6094 2.99695C14.7318 3.12792 14.8055 3.29726 14.8181 3.47646Z" fill="#3F3D56"/>
<path d="M7.06619 2.51744C7.06619 2.78227 6.97275 2.99696 6.85749 2.99696C6.74222 2.99696 6.64878 2.78227 6.64878 2.51744C6.66145 2.33825 6.73515 2.16891 6.85749 2.03793C6.97982 2.16891 7.05352 2.33825 7.06619 2.51744Z" fill="#3F3D56"/>
<path d="M11.2403 6.29357C11.2403 6.55839 11.1469 6.77308 11.0316 6.77308C10.9164 6.77308 10.8229 6.55839 10.8229 6.29357C10.8356 6.11437 10.9093 5.94503 11.0316 5.81406C11.154 5.94503 11.2277 6.11437 11.2403 6.29357Z" fill="#3F3D56"/>
<path d="M6.76804 5.81408C6.76804 6.0789 6.6746 6.29359 6.55934 6.29359C6.44407 6.29359 6.35063 6.0789 6.35063 5.81408C6.3633 5.63488 6.43701 5.46554 6.55934 5.33456C6.68167 5.46554 6.75538 5.63488 6.76804 5.81408Z" fill="#3F3D56"/>
<path d="M17.2033 1.31865C17.2033 1.58348 17.1099 1.79817 16.9946 1.79817C16.8794 1.79817 16.7859 1.58348 16.7859 1.31865C16.7986 1.13945 16.8723 0.970115 16.9946 0.839142C17.117 0.970115 17.1907 1.13945 17.2033 1.31865Z" fill="#3F3D56"/>
<path d="M13.387 7.25261C13.387 7.51744 13.2936 7.73212 13.1783 7.73212C13.063 7.73212 12.9696 7.51744 12.9696 7.25261C12.9823 7.07341 13.056 6.90407 13.1783 6.7731C13.3006 6.90407 13.3743 7.07341 13.387 7.25261Z" fill="#3F3D56"/>
<path d="M10.644 10.6991C7.82203 10.6959 5.11654 9.56763 3.12109 7.56185C1.12564 5.55608 0.00319805 2.83659 3.8147e-06 0H1.13297C1.13297 1.25547 1.37898 2.49865 1.85696 3.65855C2.33493 4.81845 3.03551 5.87237 3.91869 6.76012C4.80187 7.64787 5.85036 8.35207 7.00429 8.83252C8.15822 9.31297 9.39501 9.56025 10.644 9.56025C11.893 9.56025 13.1298 9.31297 14.2837 8.83252C15.4377 8.35207 16.4862 7.64787 17.3693 6.76012C18.2525 5.87237 18.9531 4.81845 19.4311 3.65855C19.909 2.49865 20.1551 1.25547 20.1551 0H21.288C21.2848 2.83659 20.1624 5.55608 18.1669 7.56185C16.1715 9.56762 13.466 10.6959 10.644 10.6991Z" fill="#3F3D56"/>
<path d="M35.1614 3.67307H31.8257V7.02602H35.1614V3.67307Z" fill="#3F3D56"/>
<path d="M67.8512 5.18188H40.9988V5.51718H67.8512V5.18188Z" fill="#3F3D56"/>
<path d="M35.1614 28.9121H31.8257V32.2651H35.1614V28.9121Z" fill="#3F3D56"/>
<path d="M67.8512 30.421H40.9988V30.7563H67.8512V30.421Z" fill="#3F3D56"/>
<path d="M35.1614 53.9757H31.8257V57.3287H35.1614V53.9757Z" fill="#3F3D56"/>
<path d="M67.8512 55.4846H40.9988V55.8199H67.8512V55.4846Z" fill="#3F3D56"/>
<path d="M105.462 23.0255L101.201 26.4014L92.172 23.2118C92.172 23.2118 89.1021 19.7409 87.3662 22.3261C86.7716 23.2114 90.6658 24.8471 91.0332 24.9991C91.9516 25.3792 100.75 30.2309 101.612 29.5944C102.474 28.9579 107.325 25.7384 107.325 25.7384L105.462 23.0255Z" fill="#A0616A"/>
<path d="M120.007 17.2665C115.969 15.7497 112.127 15.032 109.012 17.2665V10.0548C109.012 9.32916 109.155 8.61061 109.431 7.94018C109.707 7.26976 110.112 6.66059 110.623 6.14747C111.133 5.63435 111.739 5.22732 112.406 4.94962C113.073 4.67192 113.788 4.52899 114.51 4.52899H114.51C115.232 4.52899 115.947 4.67192 116.614 4.94962C117.281 5.22732 117.887 5.63435 118.397 6.14748C118.908 6.6606 119.313 7.26976 119.589 7.94019C119.865 8.61062 120.007 9.32917 120.007 10.0548L120.007 17.2665Z" fill="#2F2E41"/>
<path d="M109.86 33.0206L109.53 35.3425C109.53 35.3425 108.705 37.8303 109.53 42.4742L96.2475 78.8787L106.065 81.6982L110.932 61.7959L117.78 46.6205L117.12 63.8691L113.655 82.2787L123.885 81.8641L126.866 50.2971C127.348 45.3083 126.487 40.2809 124.373 35.7412C123.546 33.9758 122.657 32.5845 121.85 32.3825C119.43 31.7767 109.86 33.0206 109.86 33.0206Z" fill="#2F2E41"/>
<path d="M97.485 78.63L94.1026 82.2787C94.1026 82.2787 87.5851 85.6787 92.2051 86.0933C96.825 86.508 98.3925 84.6836 98.3925 84.6836C98.3925 84.6836 104.167 84.269 104.085 83.4397C104.002 82.6105 103.59 79.8739 103.59 79.8739L97.485 78.63Z" fill="#2F2E41"/>
<path d="M115.841 79.5098V82.0805C115.841 82.0805 115.924 83.1585 115.841 83.4073C115.759 83.6561 114.521 86.7244 118.646 86.061C122.771 85.3975 121.121 82.8268 121.121 82.8268L120.131 79.0952L115.841 79.5098Z" fill="#2F2E41"/>
<path d="M114.459 15.1086C116.749 15.1086 118.605 13.2429 118.605 10.9415C118.605 8.64012 116.749 6.77448 114.459 6.77448C112.17 6.77448 110.314 8.64012 110.314 10.9415C110.314 13.2429 112.17 15.1086 114.459 15.1086Z" fill="#A0616A"/>
<path d="M117.326 13.2427C117.326 13.2427 116.749 18.7158 117.326 19.7109C117.904 20.706 111.469 18.7158 111.469 18.7158C111.469 18.7158 112.871 14.9841 112.376 13.4915C111.881 11.9988 117.326 13.2427 117.326 13.2427Z" fill="#A0616A"/>
<path d="M120.626 28.9987L121.946 32.6474L109.654 34.0572C109.654 34.0572 108.334 33.8084 108.334 32.7304C108.334 31.6523 106.931 27.8377 106.931 27.8377C106.931 27.8377 103.496 25.0393 101.846 24.2929C101.248 24.0226 102.143 24.1342 102.646 22.9865C102.797 22.6416 102.978 22.2775 103.175 21.9085C103.336 21.6058 103.509 21.299 103.686 20.9963C103.902 20.6273 104.124 20.2641 104.339 19.9183C104.991 18.8726 105.586 17.9935 105.776 17.6378C106.354 16.5598 111.783 16.4636 111.783 16.4636C113.336 17.4454 117.821 17.6378 117.821 17.6378C117.821 17.6378 120.907 18.9356 122.192 19.9183C122.285 19.9888 120.626 28.9987 120.626 28.9987Z" fill="#E6E6E6"/>
<path d="M117.957 5.93913V5.84018L117.84 5.84672C117.176 5.33796 116.405 4.98804 115.585 4.82349C114.766 4.65894 113.92 4.68408 113.112 4.89702C113.887 5.1028 114.607 5.47689 115.222 5.99291L111.249 6.21481L109.572 9.96115H110.707L111.621 8.2753V9.96115H115.46L115.721 8.64993L116.446 9.96115H117.2C117.205 10.0546 117.212 10.1475 117.212 10.2421L116.467 17.4538L120.007 15.9553V10.2421C120.008 9.41637 119.824 8.60102 119.469 7.85625C119.114 7.11149 118.598 6.45633 117.957 5.93913Z" fill="#2F2E41"/>
<path d="M123.513 25.0182L123.266 31.5694L122.606 44.2571C122.606 44.2571 123.513 49.7302 121.204 49.6473C118.894 49.5643 120.626 43.179 120.626 43.179L119.966 33.145L120.626 26.0962L123.513 25.0182Z" fill="#A0616A"/>
<path d="M124.174 28.5841C124.174 29.3304 120.007 29.1231 120.007 29.1231L117.821 17.6378C117.821 17.6378 120.907 18.9356 122.192 19.9183C122.494 20.2337 122.742 20.5982 122.924 20.9963C123.022 21.2625 123.115 21.571 123.203 21.9085C123.291 22.2435 123.372 22.6076 123.449 22.9866C123.809 24.8349 124.051 26.7046 124.174 28.5841Z" fill="#E6E6E6"/>
<path d="M10.5318 55.2271L4.217 54.5699C4.26552 54.2329 4.22827 53.889 4.10872 53.5703C3.98916 53.2516 3.79122 52.9686 3.53336 52.7477C3.2755 52.5268 2.96614 52.3752 2.63418 52.307C2.30223 52.2388 1.9585 52.2564 1.6351 52.3579C1.31171 52.4595 1.01919 52.6418 0.784879 52.8878C0.550569 53.1338 0.382107 53.4354 0.295229 53.7646C0.20835 54.0938 0.205891 54.4398 0.288078 54.7701C0.370264 55.1005 0.534415 55.4046 0.765202 55.6539C0.530719 55.9085 0.36556 56.2196 0.285701 56.5571C0.205841 56.8946 0.213982 57.2472 0.309338 57.5806C0.404694 57.914 0.584035 58.2171 0.830018 58.4604C1.076 58.7038 1.3803 58.8792 1.71348 58.9698C2.04667 59.0603 2.39746 59.0629 2.73193 58.9773C3.06639 58.8917 3.37322 58.7207 3.62273 58.481C3.87224 58.2413 4.05599 57.9409 4.1562 57.609C4.25642 57.277 4.2697 56.9246 4.19478 56.586L10.5318 56.0004V55.2271Z" fill="#CCCCCC"/>
<path d="M16.9533 59.5897C19.4358 60.2033 21.9366 58.4334 22.066 55.8671C22.0696 55.7959 22.0714 55.7243 22.0714 55.6522C22.0714 55.5801 22.0696 55.5085 22.066 55.4373C21.9366 52.871 19.4358 51.1011 16.9533 51.7147L8.5316 53.7963C8.28899 53.7961 8.0487 53.8439 7.82449 53.9371C7.60028 54.0302 7.39654 54.1669 7.2249 54.3393C7.05327 54.5116 6.91711 54.7163 6.82421 54.9416C6.73132 55.1669 6.6835 55.4083 6.6835 55.6522C6.6835 55.8961 6.73132 56.1376 6.82421 56.3628C6.91711 56.5881 7.05327 56.7928 7.2249 56.9652C7.39654 57.1375 7.60028 57.2742 7.82449 57.3673C8.0487 57.4605 8.28899 57.5083 8.5316 57.5081L16.9533 59.5897Z" fill="#EF233C"/>
</g>
<defs>
<clipPath id="clip0">
<rect width="128" height="87" fill="white"/>
</clipPath>
</defs>
</svg>
